# xmcd
#
# Track frame offsets: 
#        150
#        16707
#        43685
#        71595
#
# Disc length: 1206 seconds
#
# Revision: 1
# Processed by: cddbd v1.5.2PL0 Copyright (c) Steve Scherf et al.
# Submitted via: ExactAudioCopy v0.99pb4
#
DISCID=2904b404
DTITLE=Karen Young - Hot Shot '97
DYEAR=1997
DGENRE=House
TTITLE0=Hot Shot (Rollercoaster Radio Mix)
TTITLE1=Hot Shot (Rollercoaster Club Mix)
TTITLE2=Hot Shot (Da Techno Bohemian Hot Vocal Mix)
TTITLE3=Hotdisco
EXTD=
EXTT0=
EXTT1=
EXTT2=
EXTT3=
PLAYORDER=
